<svg xmlns="http://www.w3.org/2000/svg"
    xmlns:xlink="http://www.w3.org/1999/xlink" version="1.1" x="0px" y="0px" viewBox="0 0 64 64" style="enable-background:new 0 0 64 64;" xml:space="preserve">
    <g>
        <path d="M26,20h-6c-0.5,0-1,0.5-1,1v22c0,0.5,0.5,1,1,1h6c0.5,0,1-0.5,1-1V21C27,20.5,26.5,20,26,20z M26,20h-6c-0.5,0-1,0.5-1,1   v22c0,0.5,0.5,1,1,1h6c0.5,0,1-0.5,1-1V21C27,20.5,26.5,20,26,20z M32,3C16,3,3,16,3,32s13,29,29,29s29-13,29-29S48,3,32,3z M29,43   c0,1.6-1.3,3-3,3h-6c-1.7,0-3-1.4-3-3V21c0-1.7,1.3-3,3-3h6c1.7,0,3,1.3,3,3V43z M47,43c0,1.6-1.3,3-3,3h-6c-1.7,0-3-1.4-3-3V21   c0-1.7,1.3-3,3-3h6c1.7,0,3,1.3,3,3V43z M44,20h-6c-0.5,0-1,0.5-1,1v22c0,0.5,0.5,1,1,1h6c0.5,0,1-0.5,1-1V21   C45,20.5,44.5,20,44,20z M26,20h-6c-0.5,0-1,0.5-1,1v22c0,0.5,0.5,1,1,1h6c0.5,0,1-0.5,1-1V21C27,20.5,26.5,20,26,20z" fill="#0B79BE"/>
    </g>
</svg>