<?xml version="1.0" encoding="UTF-8"?>
<svg viewBox="0 0 48 48" version="1.1" xmlns="http://www.w3.org/2000/svg" xmlns:xlink="http://www.w3.org/1999/xlink">
    <!-- Generator: Sketch 49.2 (51160) - http://www.bohemiancoding.com/sketch -->
    <title>Spotify</title>
    <desc>Created with Sketch.</desc>
    <defs></defs>
    <g id="Page-1" stroke="none" stroke-width="1" fill="none">
        <g id="Social-Icons---Isolated" transform="translate(-500.000000, -839.000000)" fill="#FFFFFF">
            <path
                d="M538.16,860.36 C530.48,855.8 517.64,855.32 510.32,857.6 C509.12,857.96 507.92,857.24 507.56,856.16 C507.2,854.96 507.92,853.76 509,853.4 C517.52,850.88 531.56,851.36 540.44,856.64 C541.52,857.24 541.88,858.68 541.28,859.76 C540.68,860.6 539.24,860.96 538.16,860.36 M537.92,867.08 C537.32,867.92 536.24,868.28 535.4,867.68 C528.92,863.72 519.08,862.52 511.52,864.92 C510.56,865.16 509.48,864.68 509.24,863.72 C509,862.76 509.48,861.68 510.44,861.44 C519.2,858.8 530,860.12 537.44,864.68 C538.16,865.04 538.52,866.24 537.92,867.08 M535.04,873.68 C534.56,874.4 533.72,874.64 533,874.16 C527.36,870.68 520.28,869.96 511.88,871.88 C511.04,872.12 510.32,871.52 510.08,870.8 C509.84,869.96 510.44,869.24 511.16,869 C520.28,866.96 528.2,867.8 534.44,871.64 C535.28,872 535.4,872.96 535.04,873.68 M524,839 C510.8,839 500,849.8 500,863 C500,876.2 510.8,887 524,887 C537.2,887 548,876.2 548,863 C548,849.8 537.32,839 524,839"
                id="Spotify"></path>
        </g>
    </g>
</svg>