<svg version="1.1" id="Layer_1" xmlns="http://www.w3.org/2000/svg" xmlns:xlink="http://www.w3.org/1999/xlink" x="0px"
	y="0px" width="100%" viewBox="0 0 735 615" enable-background="new 0 0 735 615" xml:space="preserve">
	<path fill="none" opacity="1.000000" stroke="none" d="
M1.228784,16.223061 
	C1.000000,11.667579 1.109530,7.331022 0.946181,3.004768 
	C0.880688,1.270208 1.245161,0.651980 3.001059,0.974777 
	C3.806980,1.122935 4.662738,1.000000 5.495896,1.000000 
	C247.444962,1.000000 489.394012,1.015040 731.343018,0.877488 
	C735.593262,0.875071 736.100159,1.979493 736.098022,5.841154 
	C735.986938,207.631958 735.985413,409.422821 736.105896,611.213623 
	C736.108276,615.189331 735.421509,616.117859 731.288269,616.115662 
	C489.339264,615.986145 247.390198,615.988464 5.441181,616.102478 
	C1.558626,616.104309 0.529872,615.111877 0.929720,611.435425 
	C1.270014,608.306519 1.000000,605.111206 1.000000,601.472656 
	C2.709980,599.640015 2.241750,598.064392 1.224797,596.228394 
	C1.000000,404.645782 1.000000,213.291550 1.000000,21.468658 
	C2.173242,19.584600 2.718904,18.106142 1.228784,16.223061 
z" />
	<path fill="#FFFFFF" opacity="1.000000" stroke="none" d="
M86.503342,174.917786 
	C96.382301,162.391983 107.732071,151.612823 119.400169,141.196518 
	C127.915329,133.594894 136.814560,126.435440 146.056122,119.677284 
	C157.659042,111.192307 169.630920,103.282562 182.056763,96.127785 
	C207.907211,81.243141 235.341492,69.983650 263.953705,61.576092 
	C282.328308,56.176804 301.069366,52.646263 319.987244,49.712887 
	C327.823395,48.497833 335.896942,47.216843 343.540558,46.989216 
	C356.046082,46.616787 368.694183,46.239594 381.275726,46.960800 
	C385.666687,47.212498 390.634399,45.839783 394.364838,46.614887 
	C400.551605,47.900368 406.746460,48.242161 412.917053,49.126713 
	C431.830048,51.837887 450.634125,55.052746 469.049469,60.332718 
	C481.193420,63.814579 493.158234,67.764236 504.971283,72.230484 
	C525.925903,80.152969 545.826965,90.282768 564.864746,101.945885 
	C582.198242,112.564957 598.565308,124.605789 613.935242,138.047531 
	C625.613098,148.260361 636.763123,158.970428 647.124756,170.440201 
	C659.555908,184.200882 670.799133,198.932449 681.216492,214.329971 
	C686.529846,222.183472 691.411377,230.604950 690.494812,239.690323 
	C689.189087,252.633057 683.635193,263.986359 671.547241,271.512939 
	C662.596863,277.085907 652.757324,277.954407 643.665222,276.188202 
	C634.224426,274.354279 625.518860,268.830536 619.839905,259.870422 
	C605.710693,237.577377 588.496582,217.836273 569.042847,200.056213 
	C547.900757,180.733002 524.358032,164.968307 498.632660,152.312088 
	C466.799530,136.651001 433.213501,127.302567 398.007843,123.992088 
	C382.109772,122.497147 366.151184,121.921318 350.082275,123.049324 
	C318.283234,125.281570 287.508972,131.637878 257.975006,143.617752 
	C228.324341,155.644958 201.149475,171.791656 176.618317,192.479874 
	C155.537262,210.258438 137.491028,230.719101 121.322273,252.910919 
	C117.067070,258.751282 114.114586,265.510468 107.582985,269.536163 
	C101.277031,273.422821 94.887741,276.137482 87.215218,276.615234 
	C76.100914,277.307251 67.000092,273.499908 58.960945,266.492615 
	C53.884087,262.067383 50.615963,256.411713 48.921917,249.781326 
	C47.548584,244.406189 44.887794,239.285629 46.712769,233.267197 
	C48.216690,231.431381 48.543308,229.514526 49.036835,227.327850 
	C49.187309,226.133514 49.319580,225.262451 49.717472,224.189209 
	C51.281189,222.184418 52.641426,220.419891 53.557777,218.001099 
	C53.661106,217.682053 53.744900,217.299500 53.854706,217.137360 
	C55.213856,216.055527 55.918854,214.751022 56.668602,213.088379 
	C58.301128,210.611877 59.778976,208.415848 61.494911,205.987946 
	C62.584625,205.518158 63.038586,204.835098 63.468414,203.866577 
	C63.825375,202.850586 64.222443,202.137909 64.877274,201.258911 
	C65.839226,200.056412 66.853317,199.272537 67.463348,197.877838 
	C67.768028,197.128906 68.108307,196.690872 68.663979,196.077515 
	C70.511490,194.748611 71.770660,193.291183 72.721001,191.161591 
	C73.464973,190.073196 74.015488,189.247757 74.784096,188.211914 
	C76.191002,186.794601 77.460068,185.664307 78.627579,184.030228 
	C79.909027,182.213760 81.074234,180.693130 82.489563,178.967728 
	C84.355446,177.975708 85.417412,176.595871 86.503342,174.917786 
z" />
	<path fill="#FFFFFF" opacity="1.000000" stroke="none" d="
M392.989258,263.390106 
	C381.277557,263.220062 370.118652,259.779327 358.651642,261.761871 
	C350.108948,263.238800 341.292114,263.439850 332.912964,265.495483 
	C306.750153,271.913910 283.184570,283.579926 263.066315,301.820892 
	C252.545792,311.359711 243.651398,322.186188 235.583282,333.850403 
	C227.899460,344.959076 217.163055,352.266022 203.411240,351.998444 
	C189.000381,351.718079 174.358734,342.443329 168.298538,328.521332 
	C164.900558,320.715179 164.614655,312.631287 165.749573,305.007416 
	C166.875778,297.442139 171.776642,290.709015 176.441208,284.323059 
	C194.561172,259.516327 216.381302,238.572998 242.078094,221.787491 
	C253.946198,214.035080 266.637848,207.742416 279.857605,202.504608 
	C295.958862,196.125137 312.607178,191.899002 329.499634,188.215240 
	C335.605896,186.883621 342.088440,185.648834 347.873047,185.437485 
	C358.025848,185.066513 368.393890,185.349396 378.615173,185.161377 
	C386.621918,185.014099 394.705353,185.660828 402.221039,186.988861 
	C418.499298,189.865265 434.580383,194.192520 450.305511,199.737335 
	C478.758240,209.770004 503.369507,225.835388 525.787842,245.684097 
	C541.057373,259.203369 553.983459,274.708221 565.312195,291.587433 
	C579.201050,312.281036 569.793457,341.739166 545.530334,349.416046 
	C528.275574,354.875488 511.613983,348.747253 501.292877,333.571045 
	C486.044739,311.149963 467.010498,292.724487 442.674957,280.047699 
	C429.622711,273.248566 415.944031,268.481018 401.794434,264.687286 
	C398.923523,263.917511 395.816010,266.298523 392.989258,263.390106 
z" />
	<path fill="#FFFFFF" opacity="1.000000" stroke="none" d="
M333.450623,339.511169 
	C339.934082,336.125854 347.042419,336.860626 353.417999,334.312439 
	C356.797211,332.961792 360.876099,334.918121 364.741791,334.517517 
	C370.343811,333.936981 376.059692,334.183655 381.636932,334.362885 
	C386.938416,334.533264 392.580353,335.711639 397.584656,337.433655 
	C403.105927,339.333588 408.774780,340.951172 414.235931,343.223969 
	C438.676605,353.395630 457.403320,370.049683 471.278778,392.297028 
	C475.737335,399.445648 479.197723,407.159119 481.952118,415.210022 
	C487.369781,431.045563 490.806885,447.333282 488.780487,463.915619 
	C486.342010,483.869659 480.808929,503.042511 469.185028,520.060730 
	C456.146667,539.149719 439.583832,553.970032 418.632996,563.773804 
	C410.366180,567.642151 401.760681,570.465637 392.717194,572.090576 
	C384.212738,573.618713 375.751434,575.672791 367.078400,575.215027 
	C352.412933,574.441040 338.101837,571.796570 324.363312,566.293823 
	C300.562531,556.760803 281.792053,541.156921 267.720367,519.839600 
	C259.609070,507.551727 254.376984,494.137878 250.955261,479.748627 
	C248.503357,469.437866 248.409912,459.155853 247.945648,448.775024 
	C247.634888,441.826263 249.806625,435.353455 251.231049,428.757019 
	C258.279999,396.114075 276.693359,371.141052 304.102417,352.781433 
	C312.891327,346.894257 322.559540,342.141785 333.450623,339.511169 
z" />

	<path fill="#252638" opacity="1.000000" stroke="none" d="
M308.776062,431.936584 
	C318.015228,410.015778 333.946869,396.039856 356.850708,391.785065 
	C378.338715,387.793243 397.641083,393.667206 413.300293,409.569855 
	C431.321228,427.871033 436.505524,449.744232 428.894226,473.847626 
	C421.551788,497.099609 405.049103,511.558197 381.060242,516.719971 
	C342.535217,525.009521 305.851440,495.677490 304.988983,456.297333 
	C304.807892,448.027191 305.846283,440.060944 308.776062,431.936584 
z" />
</svg>