<?xml version="1.0" encoding="utf-8"?>
<!-- Generator: Adobe Illustrator 24.0.2, SVG Export Plug-In . SVG Version: 6.00 Build 0)  -->
<svg version="1.1" id="Layer_1" xmlns="http://www.w3.org/2000/svg" xmlns:xlink="http://www.w3.org/1999/xlink" x="0px"
	y="0px" viewBox="0 0 512 512" style="enable-background:new 0 0 512 512;" xml:space="preserve">
	<style type="text/css">
		.st0 {
			fill: #FFFFFF;
		}

		.st1 {
			fill: #252638;
		}

		.st2 {
			fill: #FFFFFF;
		}
	</style>
	<ellipse transform="matrix(0.7071 -0.7071 0.7071 0.7071 -105.8243 255.8913)" class="st0" cx="255.976" cy="255.6869"
		rx="250.6023" ry="250.6025" />
	<g>
		<path class="st1" d="M408.1823,159.0387c-9.8067,4.4369-20.5987,7.1299-31.182,8.9069
		c5.0242-0.8435,12.4291-9.9398,15.3889-13.6169c4.5162-5.6109,8.2727-12.0042,10.384-18.9079
		c0.2693-0.5392,0.4742-1.2165-0.0644-1.6245c-0.6773-0.2693-1.1141-0.1312-1.6527,0.1381
		c-11.8123,6.3301-24.0315,10.9226-37.0348,14.173c-1.0779,0.2693-1.8776-0.0006-2.5549-0.6773
		c-1.0772-1.2165-2.0894-2.3637-3.2366-3.3103c-5.4654-4.65-11.33-8.2983-17.9418-10.9932
		c-8.6821-3.539-18.1676-5.038-27.5174-4.4313c-9.097,0.5905-18.0314,3.1548-26.1061,7.3736
		c-8.0915,4.2282-15.3114,10.1078-21.0605,17.2021c-5.9465,7.3392-10.3328,16.0062-12.5778,25.1906
		c-2.1669,8.8651-1.9894,17.6351-0.6667,26.597c0.2006,1.4858,0.0694,1.6864-1.2771,1.4858
		c-50.8703-7.5704-93.0379-25.7741-127.268-64.7803c-1.4858-1.6933-2.2931-1.6933-3.5103,0.1306
		c-14.979,22.4513-7.711,58.5245,11.0007,76.2514c2.4943,2.3631,5.0581,4.7262,7.8216,6.8825
		c-1.0085,0.2068-13.4613-1.1422-24.5574-6.8825c-1.486-0.9397-2.232-0.4005-2.3633,1.2853
		c-0.1381,2.4256,0.0694,4.6575,0.4018,7.2899c2.8748,22.7594,18.6367,43.8117,40.2214,52.025
		c2.5637,1.0779,5.3968,2.0244,8.1609,2.4943c-4.9186,1.0778-9.9835,1.8495-24.0877,0.746c-1.7551-0.338-2.4256,0.5392-1.7551,2.225
		c10.5983,28.8876,33.4764,37.4821,50.6087,42.3789c2.2936,0.4005,4.5886,0.4005,6.8886,0.9398
		c-0.1381,0.2074-0.2762,0.2074-0.4074,0.4074c-5.6834,8.6638-25.3861,15.1115-34.5609,18.3181
		c-16.6868,5.8315-34.8555,8.4558-52.4907,6.7169c-2.823-0.4143-3.4153-0.3836-4.1807,0c-0.7742,0.4786-0.0975,1.1528,0.8085,1.8864
		c3.5796,2.3631,7.2211,4.4569,10.9326,6.4813c11.2,5.9359,22.8774,10.6621,35.0872,14.0343
		c63.057,17.4146,134.0861,4.6181,181.4332-42.4233c37.1802-36.941,50.2116-87.8851,50.2116-138.8935
		c0-1.9969,2.3587-3.0992,3.761-4.1526c9.6734-7.268,17.3613-15.9662,24.5774-25.6785c1.6216-2.1819,1.5216-4.1226,1.5216-4.9193
		c0-0.1381,0-0.2687,0-0.2687C409.3377,158.2233,409.4377,158.4676,408.1823,159.0387z" />
		<path class="st2" d="M192.3356,383.3062C218.4846,383.3062,193.591,383.3062,192.3356,383.3062
		C195.7771,383.3062,192.1976,383.3062,192.3356,383.3062z" />
		<path class="st2" d="M192.3356,383.3062C191.9307,383.3375,187.2413,383.3062,192.3356,383.3062
		C192.3356,383.3062,191.5202,383.3062,192.3356,383.3062z" />
		<path class="st2" d="M202.7283,383.5755C202.7283,383.055,208.1974,383.5755,202.7283,383.5755
		C202.7283,383.3062,203.3988,383.5755,202.7283,383.5755z" />
		<path class="st2" d="M311.9051,130.5272c-0.3387,0.2693-0.8085,0.2693-1.2772,0
		C311.0966,130.5272,311.5664,130.5272,311.9051,130.5272z" />
	</g>
</svg>